<?xml version="1.0" standalone="no"?>
<!DOCTYPE svg PUBLIC "-//W3C//DTD SVG 20010904//EN"
 "http://www.w3.org/TR/2001/REC-SVG-20010904/DTD/svg10.dtd">
<svg version="1.0" xmlns="http://www.w3.org/2000/svg"
 width="600.000000pt" height="600.000000pt" viewBox="0 0 600.000000 600.000000"
 preserveAspectRatio="xMidYMid meet">
<metadata>
Created by potrace 1.11, written by Peter Selinger 2001-2013
</metadata>
<g transform="translate(0.000000,600.000000) scale(0.100000,-0.100000)"
fill="#000000" stroke="none">
<path d="M2775 5680 c-27 -4 -80 -10 -117 -14 -68 -6 -241 -38 -313 -57 -22
-6 -48 -13 -58 -15 -34 -6 -282 -92 -312 -108 -16 -9 -34 -16 -38 -16 -17 0
-244 -118 -337 -174 -470 -286 -855 -729 -1069 -1231 -111 -259 -177 -513
-208 -800 -14 -139 -8 -519 11 -622 2 -10 7 -38 11 -63 112 -734 540 -1401
1165 -1818 58 -38 137 -86 175 -107 39 -21 75 -41 80 -45 40 -28 379 -166 455
-186 8 -2 49 -12 90 -24 41 -11 86 -22 100 -25 14 -3 36 -7 50 -10 191 -38
307 -49 535 -49 227 -1 310 6 495 40 970 179 1768 881 2071 1822 17 53 32 104
34 112 2 8 13 54 24 102 11 47 23 101 26 120 3 18 7 44 10 58 36 192 41 564 9
802 -59 441 -244 885 -522 1253 -309 408 -742 728 -1222 902 -91 33 -277 88
-330 98 -14 3 -36 7 -50 10 -53 11 -137 25 -180 30 -25 3 -61 8 -80 11 -56 8
-450 11 -505 4z"/>
</g>
</svg>
